<?xml version="1.0" encoding="iso-8859-1"?>
<!-- Generator: Adobe Illustrator 17.1.0, SVG Export Plug-In . SVG Version: 6.00 Build 0)  -->
<!DOCTYPE svg PUBLIC "-//W3C//DTD SVG 1.1//EN" "http://www.w3.org/Graphics/SVG/1.1/DTD/svg11.dtd">
<svg version="1.1" id="Capa_1" xmlns="http://www.w3.org/2000/svg" xmlns:xlink="http://www.w3.org/1999/xlink" x="0px" y="0px"
	 viewBox="0 0 496 496" style="enable-background:new 0 0 496 496;" xml:space="preserve">
<path d="M488,408V232.01c0-17.65-14.359-32.01-32.01-32.01H416v-8h8c4.418,0,8-3.582,8-8s-3.582-8-8-8H289.528
	c-8.511-14.735-24.285-24-41.528-24c-6.798,0-13.365,1.447-19.352,4.095L109.315,50.02c-3.303-2.935-8.359-2.638-11.294,0.665
	c-2.935,3.302-2.638,8.358,0.665,11.294L214.9,165.282c-3.267,3.119-6.116,6.716-8.428,10.718H72c-4.418,0-8,3.582-8,8s3.582,8,8,8
	h8v8H40.01C22.359,200,8,214.359,8,232.01V408c-4.418,0-8,3.582-8,8s3.582,8,8,8h80c4.418,0,8-3.582,8-8v-16h12.305
	c-2.732,4.711-4.305,10.174-4.305,16c0,17.645,14.355,32,32,32c9.551,0,18.132-4.211,24-10.868c5.868,6.657,14.449,10.868,24,10.868
	c14.884,0,27.426-10.214,30.987-24h66.025c3.561,13.786,16.104,24,30.987,24c9.551,0,18.132-4.211,24-10.868
	c5.868,6.657,14.449,10.868,24,10.868c17.645,0,32-14.355,32-32c0-5.826-1.573-11.289-4.305-16H400v16c0,4.418,3.582,8,8,8h80
	c4.418,0,8-3.582,8-8S492.418,408,488,408z M416,248h56v136h-56V248z M248,168c7.929,0,15.394,2.944,21.124,8h-42.248
	C232.606,170.944,240.071,168,248,168z M96,192h115.229c0.042,0.001,0.083,0,0.125,0H284.6c0.009,0,0.018,0.002,0.027,0.002
	c0.013,0,0.026-0.002,0.038-0.002H400v8H96V192z M40.01,216h415.98c8.824,0,16.004,7.176,16.009,16h-64c-4.418,0-8,3.582-8,8v80h-16
	v-72c0-0.306-0.021-0.608-0.055-0.905c0.405-3.384-1.399-6.78-4.672-8.248C369.426,234.432,356.899,232,344,232
	c-11.513,0-22.722,1.941-32,5.497c-9.279-3.555-20.489-5.497-32-5.497c-11.513,0-22.722,1.941-32,5.497
	c-9.279-3.555-20.489-5.497-32-5.497c-11.513,0-22.722,1.941-32,5.497c-9.279-3.555-20.489-5.497-32-5.497
	c-12.901,0-25.428,2.432-35.274,6.848c-3.272,1.468-5.076,4.864-4.671,8.247C112.021,247.392,112,247.693,112,248v72H96v-80
	c0-4.418-3.582-8-8-8H24C24.006,223.176,31.186,216,40.01,216z M320,320v-40h48v40H320z M256,320v-40h48v40H256z M192,320v-40h48v40
	H192z M128,320v-40h48v40H128z M368,264h-48v-12.361c7.019-2.35,15.337-3.639,24-3.639c8.663,0,16.98,1.289,24,3.639V264z
	 M304,251.639V264h-48v-12.361c7.019-2.35,15.337-3.639,24-3.639C288.663,248,296.98,249.289,304,251.639z M240,251.639V264h-48
	v-12.361c7.019-2.35,15.337-3.639,24-3.639C224.663,248,232.98,249.289,240,251.639z M176,251.639V264h-48v-12.361
	c7.019-2.35,15.337-3.639,24-3.639C160.663,248,168.98,249.289,176,251.639z M24,248h56v136H24V248z M80,408H24v-8h56V408z M136,432
	c-8.822,0-16-7.178-16-16s7.178-16,16-16c5.906,0,11.063,3.226,13.835,8H136c-4.418,0-8,3.582-8,8s3.582,8,8,8h13.835
	C147.063,428.774,141.906,432,136,432z M325.835,408h-27.67c2.772-4.774,7.928-8,13.835-8S323.063,403.226,325.835,408z
	 M281.013,408h-66.025c-0.733-2.839-1.855-5.522-3.292-8h72.61C282.868,402.478,281.746,405.161,281.013,408z M197.835,408h-27.67
	c2.772-4.774,7.928-8,13.835-8S195.063,403.226,197.835,408z M184,432c-5.906,0-11.063-3.226-13.835-8h27.67
	C195.063,428.774,189.906,432,184,432z M312,432c-5.906,0-11.063-3.226-13.835-8h27.67C323.063,428.774,317.906,432,312,432z
	 M376,416c0,8.822-7.178,16-16,16c-5.906,0-11.063-3.226-13.835-8H360c4.418,0,8-3.582,8-8s-3.582-8-8-8h-13.835
	c2.772-4.774,7.928-8,13.835-8C368.822,400,376,407.178,376,416z M96,384v-48h304v48H96z M416,400h56v8h-56V400z"/>
<g>
</g>
<g>
</g>
<g>
</g>
<g>
</g>
<g>
</g>
<g>
</g>
<g>
</g>
<g>
</g>
<g>
</g>
<g>
</g>
<g>
</g>
<g>
</g>
<g>
</g>
<g>
</g>
<g>
</g>
</svg>
